HIERARCHY
ROOT Hips
{
	OFFSET 0.0000 0.0000 0.0000
	CHANNELS 6 Xposition Yposition Zposition Zrotation Xrotation Yrotation
	JOINT Spine1
	{
		OFFSET -0.0137 5.0038 -0.0537
		CHANNELS 3 Zrotation Xrotation Yrotation
		JOINT Spine2
		{
			OFFSET -0.0000 7.1253 -0.0298
			CHANNELS 3 Zrotation Xrotation Yrotation
			JOINT Chest
			{
				OFFSET -0.0000 7.5501 -0.8160
				CHANNELS 3 Zrotation Xrotation Yrotation
				JOINT Neck1
				{
					OFFSET -0.1817 26.3113 -0.5533
					CHANNELS 3 Zrotation Xrotation Yrotation
					JOINT Neck2
					{
						OFFSET -0.0000 7.7094 2.3026
						CHANNELS 3 Zrotation Xrotation Yrotation
						JOINT Head
						{
							OFFSET -0.0000 6.1289 1.9537
							CHANNELS 3 Zrotation Xrotation Yrotation
							JOINT Jaw
							{
								OFFSET 0.0026 0.4756 3.0949
								CHANNELS 3 Zrotation Xrotation Yrotation
								End Site
								{
									OFFSET 0.0 1.0 0.0
								}
							}
							JOINT LeftEye
							{
								OFFSET 3.2064 5.3802 7.5869
								CHANNELS 3 Zrotation Xrotation Yrotation
								End Site
								{
									OFFSET 0.0 1.0 0.0
								}
							}
							JOINT RightEye
							{
								OFFSET -3.2224 5.3619 7.5582
								CHANNELS 3 Zrotation Xrotation Yrotation
								End Site
								{
									OFFSET 0.0 1.0 0.0
								}
							}
						}
					}
				}
				JOINT LeftShoulder
				{
					OFFSET 1.6217 23.2372 5.1134
					CHANNELS 3 Zrotation Xrotation Yrotation
					JOINT LeftArm
					{
						OFFSET 14.9198 0.0000 -5.5023
						CHANNELS 3 Zrotation Xrotation Yrotation
						JOINT LeftForeArm
						{
							OFFSET 28.7393 0.0000 -0.0026
							CHANNELS 3 Zrotation Xrotation Yrotation
							JOINT LeftHand
							{
								OFFSET 27.0940 -0.0000 0.0026
								CHANNELS 3 Zrotation Xrotation Yrotation
								JOINT LeftHandThumbEnd
								{
									OFFSET 12.2686 -3.2202 4.8331
									CHANNELS 3 Zrotation Xrotation Yrotation
									End Site
									{
										OFFSET 0.0 1.0 0.0
									}
								}
								JOINT LeftHandMiddleEnd
								{
									OFFSET 19.0120 -0.3129 -0.0340
									CHANNELS 3 Zrotation Xrotation Yrotation
									End Site
									{
										OFFSET 0.0 1.0 0.0
									}
								}
							}
						}
					}
				}
				JOINT RightShoulder
				{
					OFFSET -1.3801 23.1803 5.2142
					CHANNELS 3 Zrotation Xrotation Yrotation
					JOINT RightArm
					{
						OFFSET -15.0372 0.0000 -5.5456
						CHANNELS 3 Zrotation Xrotation Yrotation
						JOINT RightForeArm
						{
							OFFSET -28.7366 0.0000 -0.0026
							CHANNELS 3 Zrotation Xrotation Yrotation
							JOINT RightHand
							{
								OFFSET -27.1336 -0.0000 0.0026
								CHANNELS 3 Zrotation Xrotation Yrotation
								JOINT RightHandThumbEnd
								{
									OFFSET -12.2642 -3.2115 4.8040
									CHANNELS 3 Zrotation Xrotation Yrotation
									End Site
									{
										OFFSET 0.0 1.0 0.0
									}
								}
								JOINT RightHandMiddleEnd
								{
									OFFSET -19.0006 -0.3066 -0.0316
									CHANNELS 3 Zrotation Xrotation Yrotation
									End Site
									{
										OFFSET 0.0 1.0 0.0
									}
								}
							}
						}
					}
				}
			}
		}
	}
	JOINT LeftLeg
	{
		OFFSET 10.0432 -8.4345 2.5957
		CHANNELS 3 Zrotation Xrotation Yrotation
		JOINT LeftShin
		{
			OFFSET -0.0000 -43.2218 -0.8029
			CHANNELS 3 Zrotation Xrotation Yrotation
			JOINT LeftFoot
			{
				OFFSET 0.0000 -42.1551 -3.4815
				CHANNELS 3 Zrotation Xrotation Yrotation
				JOINT LeftToeBase
				{
					OFFSET 0.0000 -5.0595 13.2315
					CHANNELS 3 Zrotation Xrotation Yrotation
					End Site
					{
						OFFSET 0.0 1.0 0.0
					}
				}
			}
		}
	}
	JOINT RightLeg
	{
		OFFSET -10.0473 -8.2953 2.6203
		CHANNELS 3 Zrotation Xrotation Yrotation
		JOINT RightShin
		{
			OFFSET 0.0000 -43.3622 -0.8056
			CHANNELS 3 Zrotation Xrotation Yrotation
			JOINT RightFoot
			{
				OFFSET 0.0000 -42.1174 -3.4784
				CHANNELS 3 Zrotation Xrotation Yrotation
				JOINT RightToeBase
				{
					OFFSET -0.0000 -5.0796 13.2842
					CHANNELS 3 Zrotation Xrotation Yrotation
					End Site
					{
						OFFSET 0.0 1.0 0.0
					}
				}
			}
		}
	}
}
MOTION
Frames: 13
Frame Time: 0.033333
-1.8196 86.2016 0.6823 1.3914 -0.6200 1.6012 -2.2196 2.4748 -0.1643 -1.4039 -3.6266 -0.5854 -5.8387 20.3072 -4.1000 -4.3894 15.3657 4.4248 3.5788 -4.1702 14.2438 -10.3130 -5.6439 19.2672 0.1053 -0.1082 -0.2455 0.8394 -10.5180 -4.0577 -0.6483 -10.5400 3.5627 -6.1656 16.9910 -7.7297 -48.0265 -15.8904 12.0535 1.3146 -0.2927 -109.7316 11.0155 -21.0932 -16.2494 -15.4094 10.9550 15.4833 -59.8152 1.8849 2.4151 1.2341 21.9514 4.0426 60.7982 -3.2890 5.9946 -0.3768 0.1161 94.8807 -17.3849 16.1414 -49.7559 16.4647 7.3318 -15.5417 51.0742 -3.3017 -4.8361 19.2599 -39.5178 26.2053 -0.8626 48.7256 -1.4847 -16.1613 -7.5036 -11.9012 1.6244 -0.1389 -1.6307 -29.5284 -20.3316 -10.5618 0.7545 40.6891 1.8136 33.0344 -12.5566 -15.3734 -1.4179 0.6593 1.1887
-1.8444 86.2527 0.7208 1.3652 -0.6562 1.7176 -2.1595 2.4065 -0.1381 -1.3880 -3.6495 -0.5686 -5.7913 20.3061 -4.0478 -4.2720 15.1622 4.3663 3.6418 -4.1738 14.2147 -10.2496 -5.5671 19.3739 0.1062 -0.1078 -0.2520 0.8444 -10.5255 -4.0680 -0.6513 -10.5445 3.5606 -6.2900 17.0739 -7.4958 -48.0041 -15.6417 12.3303 1.3299 -0.2735 -109.9096 10.9528 -21.1940 -16.4008 -15.4173 10.9721 15.4673 -59.8929 1.8632 2.4187 1.3062 21.9198 4.1334 60.5635 -3.3215 5.7205 -0.2998 0.1218 94.6702 -17.3486 16.2629 -49.8428 16.4463 7.3621 -15.5646 51.0868 -3.2745 -4.7921 19.3068 -39.3849 25.9983 -0.8564 48.5924 -1.4715 -16.1415 -7.4860 -11.7657 1.6231 -0.1541 -1.6214 -29.4811 -20.1155 -10.7060 0.7461 40.4711 1.8070 32.9828 -12.5150 -15.4849 -1.4185 0.6699 1.2036
-1.7646 86.3273 0.7646 1.3075 -0.5977 1.7690 -2.1293 2.3280 -0.1196 -1.3741 -3.6580 -0.5309 -5.7479 20.2733 -3.9928 -4.1513 14.8417 4.2946 3.6642 -4.1783 14.2255 -10.1750 -5.5508 19.4675 0.1059 -0.1109 -0.2574 0.8466 -10.5262 -4.0751 -0.6541 -10.5462 3.5568 -6.4001 17.0277 -7.3499 -47.9269 -15.3859 12.5894 1.3771 -0.2251 -109.9778 10.9188 -21.3451 -16.5658 -15.4790 10.9873 15.4691 -60.0013 1.8303 2.4299 1.4143 21.8910 4.2245 60.4377 -3.3923 5.5236 -0.2638 0.1980 94.5195 -17.3216 16.2669 -49.8558 16.4654 7.3599 -15.5711 51.0998 -3.2584 -4.7540 19.2771 -39.3431 25.8967 -0.8582 48.5031 -1.4731 -16.0620 -7.4905 -11.6301 1.6223 -0.1357 -1.6118 -29.4219 -19.8913 -10.8033 0.7379 40.0124 1.8006 32.9734 -12.2918 -15.6263 -1.4175 0.6500 1.2118
-1.5903 86.4426 0.8224 1.2364 -0.4561 1.7874 -2.1267 2.2639 -0.0938 -1.3666 -3.6753 -0.5260 -5.7106 20.1986 -3.9024 -4.0113 14.4766 4.1955 3.6486 -4.1687 14.2380 -10.1122 -5.5758 19.5211 0.1075 -0.1156 -0.2663 0.8538 -10.5332 -4.0861 -0.6580 -10.5516 3.5505 -6.4649 16.9384 -7.3080 -47.8496 -15.1661 12.8334 1.4609 -0.2544 -109.9964 10.8734 -21.5184 -16.6790 -15.5045 10.9831 15.4541 -60.0239 1.7972 2.4185 1.5400 21.8526 4.3091 60.4240 -3.4763 5.3636 -0.2180 0.2234 94.4183 -17.3478 16.3131 -49.8237 16.4677 7.3547 -15.5788 51.0839 -3.2691 -4.7441 19.1280 -39.3634 25.8962 -0.8644 48.4221 -1.4818 -15.9351 -7.5275 -11.5159 1.6201 -0.0604 -1.6099 -29.3226 -19.6650 -10.8641 0.7278 39.3491 1.7874 32.9647 -11.9540 -15.7617 -1.4156 0.6305 1.2107
-1.3804 86.5758 0.8625 1.1549 -0.2357 1.7575 -2.1594 2.2019 -0.0799 -1.3681 -3.6903 -0.5075 -5.6923 20.1105 -3.8212 -3.8542 14.0373 4.0764 3.5959 -4.1689 14.3028 -10.0507 -5.6256 19.5566 0.1076 -0.1220 -0.2691 0.8574 -10.5465 -4.0928 -0.6613 -10.5633 3.5522 -6.5211 16.8339 -7.3538 -47.7648 -15.0918 13.1013 1.5105 -0.2774 -109.9705 10.8935 -21.7294 -16.7960 -15.5093 10.9847 15.4454 -60.0049 1.7804 2.4096 1.6971 21.7967 4.3906 60.4795 -3.5889 5.2837 -0.1968 0.2808 94.3748 -17.3840 16.3113 -49.7870 16.4551 7.3499 -15.5996 51.0850 -3.2863 -4.7400 18.8968 -39.4454 25.9475 -0.8637 48.3734 -1.4817 -15.7401 -7.5876 -11.3252 1.6150 0.0274 -1.6023 -29.2330 -19.4273 -10.8739 0.7168 38.4662 1.7882 33.0068 -11.4822 -15.9201 -1.4149 0.5869 1.2120
-1.0783 86.7466 0.9034 1.0663 0.0675 1.6984 -2.2164 2.1604 -0.0661 -1.3852 -3.6976 -0.4694 -5.6974 19.9767 -3.7663 -3.6956 13.5495 3.9858 3.5701 -4.1648 14.3701 -10.0322 -5.6521 19.5928 0.1084 -0.1260 -0.2689 0.8585 -10.5471 -4.0959 -0.6605 -10.5681 3.5546 -6.5793 16.7424 -7.4724 -47.6409 -15.1441 13.3390 1.5552 -0.3137 -109.8783 10.8821 -21.8820 -16.8908 -15.4813 10.9484 15.4357 -59.8762 1.7636 2.4032 1.8603 21.7298 4.4784 60.6434 -3.7336 5.2429 -0.1765 0.3823 94.3601 -17.4548 16.3075 -49.7788 16.4540 7.3560 -15.6114 51.1318 -3.2795 -4.7530 18.5800 -39.5601 26.0810 -0.8680 48.2953 -1.4904 -15.5219 -7.6864 -11.1428 1.6108 0.1221 -1.5879 -29.1375 -19.2017 -10.8297 0.7041 37.4170 1.7852 33.0336 -10.8862 -16.0762 -1.4147 0.5255 1.2125
-0.7179 86.9251 0.9087 0.9859 0.4254 1.6259 -2.3013 2.1491 -0.0655 -1.4102 -3.6923 -0.4325 -5.7419 19.8280 -3.7398 -3.5201 13.0377 3.8807 3.5529 -4.1715 14.4336 -9.9947 -5.6564 19.5992 0.1139 -0.1296 -0.2736 0.8635 -10.5554 -4.1027 -0.6539 -10.5774 3.5491 -6.5943 16.6854 -7.6324 -47.5426 -15.3155 13.5734 1.5746 -0.3780 -109.7649 10.9037 -21.9737 -16.9466 -15.5169 10.8994 15.4268 -59.8412 1.7535 2.3962 1.9445 21.6669 4.5328 60.9321 -3.9036 5.2996 -0.1987 0.4322 94.4083 -17.6210 16.5100 -49.8628 16.4802 7.3794 -15.6227 51.2371 -3.2569 -4.8110 18.1771 -39.7397 26.2315 -0.8739 48.2884 -1.4988 -15.2964 -7.7953 -10.9078 1.6083 0.2041 -1.5700 -29.0217 -18.9956 -10.7212 0.6898 36.2798 1.7859 33.0460 -10.2427 -16.2566 -1.4159 0.4641 1.2241
-0.3421 87.1337 0.9110 0.9042 0.8002 1.4776 -2.4027 2.1721 -0.0474 -1.4420 -3.6752 -0.4254 -5.8196 19.6602 -3.7114 -3.3286 12.5543 3.8262 3.5370 -4.1782 14.4979 -9.9672 -5.6485 19.6170 0.1180 -0.1272 -0.2762 0.8617 -10.5577 -4.1066 -0.6440 -10.5840 3.5472 -6.6024 16.6490 -7.8112 -47.4232 -15.6200 13.8689 1.5048 -0.4474 -109.6439 10.9481 -21.9777 -16.9118 -15.5042 10.8797 15.4175 -59.7744 1.7571 2.3789 1.9499 21.5958 4.5757 61.3050 -4.0617 5.3518 -0.2040 0.4462 94.4925 -17.7103 16.8335 -50.0477 16.5506 7.3781 -15.6222 51.3907 -3.2581 -4.8501 17.7685 -39.9076 26.4463 -0.8685 48.2582 -1.4765 -15.1079 -7.8919 -10.6915 1.6119 0.2573 -1.5623 -28.9108 -18.8388 -10.5197 0.6585 35.1596 1.7520 33.0515 -9.5736 -16.4298 -1.4191 0.4182 1.2321
0.0295 87.3003 0.9140 0.8347 1.1736 1.2693 -2.5114 2.2035 -0.0798 -1.4793 -3.6382 -0.3663 -5.9176 19.5226 -3.6929 -3.1561 12.1088 3.7942 3.5380 -4.1835 14.5231 -9.9260 -5.6811 19.6411 0.1230 -0.1190 -0.2822 0.8607 -10.5564 -4.1150 -0.6321 -10.5828 3.5389 -6.5924 16.6104 -8.0181 -47.2805 -15.9480 14.1379 1.4558 -0.5049 -109.5993 11.0347 -21.8276 -16.7452 -15.5147 10.8645 15.4471 -59.7828 1.7723 2.3841 1.8572 21.5362 4.5774 61.7374 -4.2183 5.3878 -0.2548 0.4533 94.6968 -17.7764 17.2959 -50.4286 16.6347 7.3898 -15.6424 51.5477 -3.2634 -4.8873 17.3767 -40.0978 26.6591 -0.8493 48.2521 -1.4384 -14.9416 -7.9490 -10.4831 1.6158 0.2961 -1.5627 -28.8176 -18.7561 -10.2855 0.6289 34.1007 1.7049 33.0298 -8.9120 -16.5857 -1.4205 0.3401 1.2350
0.3334 87.4282 0.8754 0.7617 1.5162 1.0343 -2.6199 2.2715 -0.0731 -1.5081 -3.6042 -0.3278 -6.0306 19.4208 -3.6631 -3.0151 11.6961 3.7371 3.5329 -4.1916 14.5903 -9.9035 -5.7944 19.7081 0.1290 -0.1136 -0.2896 0.8646 -10.5455 -4.1229 -0.6235 -10.5773 3.5289 -6.5623 16.5492 -8.2186 -47.1291 -16.2968 14.3767 1.3854 -0.5464 -109.6291 11.1152 -21.6204 -16.4636 -15.5331 10.8404 15.4595 -59.8288 1.7817 2.4000 1.7148 21.4601 4.5365 62.1431 -4.3034 5.3966 -0.3154 0.4922 94.9855 -17.7833 17.8538 -50.9246 16.6869 7.3972 -15.6205 51.6396 -3.2470 -4.9045 17.0371 -40.3207 26.8652 -0.8318 48.3079 -1.3948 -14.7813 -8.0015 -10.2650 1.6177 0.3448 -1.5674 -28.7573 -18.7588 -10.0116 0.5935 33.2334 1.6564 33.0223 -8.3496 -16.7105 -1.4239 0.2609 1.2375
0.6061 87.5283 0.8049 0.7003 1.8277 0.7921 -2.7130 2.3598 -0.0541 -1.5232 -3.5822 -0.3162 -6.1583 19.3636 -3.6382 -2.9168 11.2895 3.7686 3.5373 -4.1983 14.6225 -9.8909 -5.9393 19.7600 0.1346 -0.1082 -0.2983 0.8747 -10.5434 -4.1321 -0.6226 -10.5782 3.5192 -6.5265 16.4454 -8.4040 -47.0267 -16.5714 14.5306 1.3658 -0.6481 -109.6699 11.1356 -21.2780 -16.1448 -15.5496 10.8303 15.4746 -59.8739 1.7986 2.3951 1.5818 21.3923 4.5108 62.4346 -4.3462 5.3069 -0.3351 0.4667 95.3825 -17.8213 18.3853 -51.4347 16.6909 7.4003 -15.6006 51.6318 -3.2451 -4.8981 16.7283 -40.5566 27.0410 -0.8144 48.4148 -1.3489 -14.6358 -8.0522 -9.9967 1.6190 0.4187 -1.5866 -28.7095 -18.8648 -9.7701 0.5619 32.5699 1.6058 32.9675 -7.9631 -16.7691 -1.4271 0.2180 1.2412
0.7831 87.5854 0.7242 0.6443 2.1102 0.5962 -2.7853 2.4254 -0.0706 -1.5375 -3.5499 -0.2932 -6.2689 19.3525 -3.6277 -2.8611 10.8998 3.8318 3.5372 -4.2037 14.6114 -9.8980 -6.1021 19.8550 0.1374 -0.1021 -0.3054 0.8838 -10.5396 -4.1393 -0.6254 -10.5748 3.5081 -6.5011 16.3506 -8.5624 -46.9854 -16.8348 14.5643 1.4315 -0.7382 -109.7229 11.1072 -20.9743 -15.8044 -15.5575 10.8318 15.5077 -59.9050 1.8050 2.4068 1.4765 21.3481 4.4796 62.6141 -4.4014 5.1763 -0.3659 0.4024 95.7766 -17.8526 18.8572 -51.7431 16.6547 7.4073 -15.5906 51.5692 -3.2458 -4.8997 16.4615 -40.8170 27.1574 -0.7873 48.5157 -1.2979 -14.5244 -8.0608 -9.7726 1.6163 0.4643 -1.5973 -28.6401 -19.0540 -9.5879 0.5458 32.1256 1.5680 32.8522 -7.7328 -16.8533 -1.4274 0.1543 1.2491
0.9045 87.6227 0.6230 0.5975 2.3452 0.4560 -2.8456 2.4803 -0.0593 -1.5537 -3.5214 -0.2832 -6.3741 19.3864 -3.6580 -2.8334 10.5138 3.9074 3.5524 -4.1999 14.5688 -9.9109 -6.1941 20.0025 0.1371 -0.0959 -0.3054 0.8900 -10.5285 -4.1405 -0.6323 -10.5642 3.5092 -6.5294 16.2742 -8.6937 -46.9401 -17.1085 14.5799 1.4644 -0.8128 -109.7667 11.0264 -20.7445 -15.4730 -15.5318 10.8296 15.5205 -59.9172 1.8187 2.4103 1.4267 21.3047 4.4450 62.6776 -4.4724 4.9966 -0.3026 0.3581 96.0997 -17.7820 19.1052 -51.8406 16.5872 7.4022 -15.5970 51.5092 -3.2280 -4.8791 16.2597 -41.0617 27.2681 -0.7557 48.5861 -1.2456 -14.4680 -8.0354 -9.6340 1.6137 0.4574 -1.6129 -28.5801 -19.2595 -9.4235 0.5353 31.8634 1.5468 32.7339 -7.6159 -16.9656 -1.4256 0.0789 1.2631
